<svg width="549" height="88" viewBox="0 0 549 88" fill="none" xmlns="http://www.w3.org/2000/svg">
<path d="M399.014 7.27642C395.131 9.60829 394.287 13.7766 394.287 13.7766C394.287 13.7766 388.547 15.3446 385.677 21.6452C383.651 26.0927 386.521 32.5928 386.521 32.5928C386.521 32.5928 383.257 35.8429 384.157 39.9482C385.508 46.1063 388.547 47.4747 388.547 47.4747C388.547 47.4747 387.365 54.1322 391.079 58.4224C395.078 63.0409 401.715 62.3567 401.715 62.3567C401.715 62.3567 403.741 66.3184 408.299 67.6594C412.858 69.0004 417.923 65.9488 417.923 65.9488C417.923 65.9488 420.844 68.8936 428.728 67.1462C434.13 65.9488 435.818 60.475 435.818 60.475C435.818 60.475 441.689 59.2078 443.753 56.3697C445.817 53.5316 445.273 47.4747 445.273 47.4747C445.273 47.4747 450 45.0799 450 39.264C450 33.4481 446.623 30.3691 446.623 30.3691C446.623 30.3691 448.987 23.8813 445.948 19.0793C442.159 13.0923 437.169 13.7766 437.169 13.7766C437.169 13.7766 436.663 9.44325 432.611 6.9343C428.052 4.11174 423.325 6.42113 423.325 6.42113C423.325 6.42113 420.794 3 415.221 3C411.17 3 407.624 6.42113 407.624 6.42113C407.624 6.42113 402.897 4.94454 399.014 7.27642Z" fill="black" stroke="black"/>
<path d="M390.551 23.5271C387.805 29.1556 392.954 32.7373 392.954 32.7373C392.954 32.7373 388.819 35.2957 389.006 39.5597C389.193 43.8237 394.671 46.3821 394.671 46.3821C394.671 46.3821 391.478 51.4167 395.186 55.5923C397.761 58.4918 404.284 56.7862 404.284 56.7862C404.284 56.7862 406 61.8348 410.291 62.7558C414.068 63.5663 418.188 59.8563 418.188 59.8563C418.188 59.8563 421.792 64.0375 426.77 62.7558C431.062 61.6508 432.95 55.0806 432.95 55.0806C432.95 55.0806 438.153 56.2745 440.331 53.5456C442.918 50.305 439.816 45.6999 439.816 45.6999C439.816 45.6999 445.807 42.9709 445.996 38.7069C446.167 34.8386 441.018 31.3729 441.018 31.3729C441.018 31.3729 445.138 26.4266 442.048 21.4804C439.375 17.2011 433.465 18.2398 433.465 18.2398C433.465 18.2398 433.68 12.4408 430.203 10.7352C426.727 9.02957 422.307 12.6113 422.307 12.6113C422.307 12.6113 419.561 7.80388 415.613 8.00621C411.665 8.20855 409.605 12.6113 409.605 12.6113C409.605 12.6113 406.172 9.71181 402.224 11.2468C398.532 12.6822 398.619 18.7515 398.619 18.7515C398.619 18.7515 393.433 17.6209 390.551 23.5271Z" fill="white" stroke="black"/>
<path d="M421.677 22C420.982 23.2153 416.117 29.1181 411.252 22C411.252 22 409.514 24.7778 405.517 25.2986C401.521 25.8194 400.478 22.3472 400.478 22.3472C400.478 22.3472 389.462 25.7093 394.171 29.9861C396.655 32.2431 401.521 30.1597 401.521 30.1597C401.521 30.1597 402.472 38.2101 404.301 43.007C407.081 50.2986 414.727 50.9931 414.727 50.9931V48.2153C414.727 48.2153 410.757 45.7516 411.252 43.5278C411.947 40.4028 415.248 43.007 415.248 43.007C415.248 43.007 418.897 39.882 419.592 43.5278C419.997 45.6528 416.638 48.2153 416.638 48.2153V50.9931C416.638 50.9931 423.763 51.5139 427.585 43.5278C429.844 38.8087 430.366 29.6389 430.366 29.6389C430.366 29.6389 434.015 33.8056 438.88 30.1597C443.625 26.6043 431.756 22 431.756 22C431.756 22 428.951 25.3748 426.543 25.2986C424.248 25.2261 421.677 22 421.677 22Z" fill="black" stroke="white"/>
<path d="M22.28 68.66C20.8133 68.66 19.2367 68.55 17.55 68.33C15.8633 68.11 14.2133 67.8533 12.6 67.56C11.06 67.1933 9.63 66.8267 8.31 66.46C6.99 66.02 5.96333 65.58 5.23 65.14C3.83667 64.3333 2.73667 63.16 1.93 61.62C1.12333 60.08 0.72 58.5767 0.72 57.11C0.72 55.7167 1.05 54.6533 1.71 53.92C2.37 53.1133 3.10333 52.71 3.91 52.71C4.57 52.71 6.03667 53.6267 8.31 55.46C10.4367 57.2933 12.5633 58.65 14.69 59.53C16.89 60.41 19.6033 60.85 22.83 60.85C26.13 60.85 28.77 60.0067 30.75 58.32C32.73 56.6333 33.72 54.2133 33.72 51.06C33.72 49.52 33.4267 48.2 32.84 47.1C32.3267 46 31.4467 44.9733 30.2 44.02C28.9533 43.0667 27.34 42.0767 25.36 41.05C23.4533 40.0233 21.07 38.85 18.21 37.53C15.9367 36.43 13.81 35.33 11.83 34.23C9.85 33.0567 8.09 31.7367 6.55 30.27C5.08333 28.73 3.91 26.97 3.03 24.99C2.22333 22.9367 1.82 20.5167 1.82 17.73C1.82 12.7433 3.8 8.71 7.76 5.63C11.72 2.47666 17.4767 0.899998 25.03 0.899998C29.65 0.899998 33.5 1.56 36.58 2.88C38.0467 3.54 39.2567 4.64 40.21 6.18C41.1633 7.64666 41.64 9.00333 41.64 10.25C41.64 13.33 40.6133 14.87 38.56 14.87C38.0467 14.87 36.14 13.77 32.84 11.57C29.4667 9.37 26.13 8.27 22.83 8.27C19.53 8.27 16.8533 9.04 14.8 10.58C12.7467 12.12 11.72 14.2833 11.72 17.07C11.72 18.4633 11.94 19.6733 12.38 20.7C12.8933 21.7267 13.7 22.7167 14.8 23.67C15.9733 24.6233 17.5133 25.6133 19.42 26.64C21.4 27.6667 23.8567 28.84 26.79 30.16C29.1367 31.1867 31.3367 32.2867 33.39 33.46C35.5167 34.6333 37.3867 35.99 39 37.53C40.6133 39.07 41.8967 40.9033 42.85 43.03C43.8033 45.0833 44.28 47.54 44.28 50.4C44.28 51.72 44.1333 53.0033 43.84 54.25C43.5467 55.4233 43.1433 56.5967 42.63 57.77C40.7967 61.51 37.9733 64.26 34.16 66.02C30.42 67.78 26.57 68.66 22.61 68.66H22.28ZM104.583 61.29C104.583 64.81 102.603 66.57 98.6432 66.57C96.8832 66.57 95.5632 66.2767 94.6832 65.69C93.8765 65.03 93.4732 63.9667 93.4732 62.5V61.4L93.5832 60.3V57.77L93.1432 46.33C93.1432 43.1033 92.9599 40.4267 92.5932 38.3C92.2999 36.1 91.7865 34.3767 91.0532 33.13C90.3199 31.8833 89.3665 31.0033 88.1932 30.49C87.0932 29.9767 85.7365 29.72 84.1232 29.72C82.4365 29.72 80.7499 30.27 79.0632 31.37C77.4499 32.3967 76.1665 34.01 75.2132 36.21C74.2599 38.19 73.7832 43.91 73.7832 53.37C73.7832 54.69 73.8932 56.3033 74.1132 58.21C74.1865 59.0167 74.2232 59.75 74.2232 60.41C74.2965 60.7033 74.3332 60.96 74.3332 61.18C74.3332 62.94 73.7832 64.37 72.6832 65.47C71.6565 66.57 70.0432 67.12 67.8432 67.12H66.6332C63.3332 67.12 61.6832 65.8367 61.6832 63.27V62.06C61.6832 61.62 61.8665 60.74 62.2332 59.42L62.8932 56.78C63.4799 53.9933 63.7732 48.53 63.7732 40.39V22.46L63.9932 11.9L64.1032 10.47V7.61C64.1032 7.17 64.1032 6.76667 64.1032 6.4C64.1032 5.96 64.0299 5.55666 63.8832 5.19L63.6632 4.2C63.4432 3.17333 63.3332 2.58666 63.3332 2.44C63.3332 0.973329 64.2132 0.239994 65.9732 0.239994H67.1832C68.7965 0.239994 70.0432 0.496662 70.9232 1.01C71.8032 1.45 72.4632 2.18333 72.9032 3.20999C73.3432 4.16333 73.5999 5.41 73.6732 6.95C73.8199 8.41666 73.9299 10.14 74.0032 12.12C74.1499 14.1733 74.2232 15.97 74.2232 17.51C74.2965 18.9767 74.4065 20.2233 74.5532 21.25C74.9199 23.3033 75.5799 24.33 76.5332 24.33C76.7532 24.33 77.0099 24.2933 77.3032 24.22C77.5965 24.1467 77.9265 24.0367 78.2932 23.89L79.3932 23.45C82.6199 22.0567 85.5532 21.36 88.1932 21.36C91.0532 21.36 93.3999 21.8367 95.2332 22.79C97.1399 23.7433 98.6065 25.2833 99.6332 27.41C100.733 29.4633 101.503 32.1767 101.943 35.55C102.383 38.85 102.603 42.8833 102.603 47.65C102.603 51.17 102.933 54.14 103.593 56.56C104.253 59.0533 104.583 60.63 104.583 61.29ZM143.201 68.66H141.111C137.884 68.66 134.988 68.11 132.421 67.01C129.854 65.8367 127.691 64.26 125.931 62.28C124.171 60.2267 122.814 57.88 121.861 55.24C120.981 52.5267 120.541 49.5933 120.541 46.44V44.35C120.541 41.05 121.091 37.97 122.191 35.11C123.291 32.25 124.831 29.7933 126.811 27.74C128.864 25.6133 131.248 23.9633 133.961 22.79C136.748 21.6167 139.791 21.03 143.091 21.03H144.081C148.481 21.03 152.148 22.35 155.081 24.99C156.694 26.53 157.904 28.4 158.711 30.6C159.591 32.7267 160.031 34.67 160.031 36.43C160.031 38.3367 159.811 39.84 159.371 40.94C158.931 42.04 158.124 42.92 156.951 43.58C155.851 44.24 154.348 44.7533 152.441 45.12C150.534 45.4133 148.114 45.7433 145.181 46.11C142.248 46.4767 139.974 46.77 138.361 46.99C136.821 47.1367 135.868 47.2467 135.501 47.32C132.788 48.0533 131.431 49.3 131.431 51.06C131.431 54.14 132.641 56.56 135.061 58.32C137.481 60.08 140.598 60.96 144.411 60.96C145.951 60.96 148.298 60.52 151.451 59.64C153.138 59.2 154.421 58.87 155.301 58.65C156.181 58.3567 156.694 58.21 156.841 58.21C158.454 58.21 159.261 58.98 159.261 60.52C159.261 61.4733 158.748 62.4267 157.721 63.38C156.768 64.3333 155.521 65.2133 153.981 66.02C152.441 66.7533 150.718 67.3767 148.811 67.89C146.904 68.4033 145.034 68.66 143.201 68.66ZM145.071 40.28C145.584 40.28 146.171 40.2433 146.831 40.17C147.491 40.0967 148.114 39.95 148.701 39.73C149.361 39.4367 149.911 39.07 150.351 38.63C150.791 38.19 151.011 37.64 151.011 36.98V35C151.011 32.7267 150.168 30.8567 148.481 29.39C146.794 27.85 144.961 27.08 142.981 27.08H141.771C140.378 27.08 139.021 27.41 137.701 28.07C136.381 28.73 135.208 29.61 134.181 30.71C133.228 31.81 132.458 33.0567 131.871 34.45C131.284 35.77 130.991 37.1633 130.991 38.63V39.51C130.991 40.61 132.018 41.16 134.071 41.16H135.171L135.391 41.05L142.981 40.5C143.128 40.4267 143.274 40.39 143.421 40.39C143.641 40.39 143.861 40.3533 144.081 40.28H145.071ZM198.248 68.66H196.158C192.932 68.66 190.035 68.11 187.468 67.01C184.902 65.8367 182.738 64.26 180.978 62.28C179.218 60.2267 177.862 57.88 176.908 55.24C176.028 52.5267 175.588 49.5933 175.588 46.44V44.35C175.588 41.05 176.138 37.97 177.238 35.11C178.338 32.25 179.878 29.7933 181.858 27.74C183.912 25.6133 186.295 23.9633 189.008 22.79C191.795 21.6167 194.838 21.03 198.138 21.03H199.128C203.528 21.03 207.195 22.35 210.128 24.99C211.742 26.53 212.952 28.4 213.758 30.6C214.638 32.7267 215.078 34.67 215.078 36.43C215.078 38.3367 214.858 39.84 214.418 40.94C213.978 42.04 213.172 42.92 211.998 43.58C210.898 44.24 209.395 44.7533 207.488 45.12C205.582 45.4133 203.162 45.7433 200.228 46.11C197.295 46.4767 195.022 46.77 193.408 46.99C191.868 47.1367 190.915 47.2467 190.548 47.32C187.835 48.0533 186.478 49.3 186.478 51.06C186.478 54.14 187.688 56.56 190.108 58.32C192.528 60.08 195.645 60.96 199.458 60.96C200.998 60.96 203.345 60.52 206.498 59.64C208.185 59.2 209.468 58.87 210.348 58.65C211.228 58.3567 211.742 58.21 211.888 58.21C213.502 58.21 214.308 58.98 214.308 60.52C214.308 61.4733 213.795 62.4267 212.768 63.38C211.815 64.3333 210.568 65.2133 209.028 66.02C207.488 66.7533 205.765 67.3767 203.858 67.89C201.952 68.4033 200.082 68.66 198.248 68.66ZM200.118 40.28C200.632 40.28 201.218 40.2433 201.878 40.17C202.538 40.0967 203.162 39.95 203.748 39.73C204.408 39.4367 204.958 39.07 205.398 38.63C205.838 38.19 206.058 37.64 206.058 36.98V35C206.058 32.7267 205.215 30.8567 203.528 29.39C201.842 27.85 200.008 27.08 198.028 27.08H196.818C195.425 27.08 194.068 27.41 192.748 28.07C191.428 28.73 190.255 29.61 189.228 30.71C188.275 31.81 187.505 33.0567 186.918 34.45C186.332 35.77 186.038 37.1633 186.038 38.63V39.51C186.038 40.61 187.065 41.16 189.118 41.16H190.218L190.438 41.05L198.028 40.5C198.175 40.4267 198.322 40.39 198.468 40.39C198.688 40.39 198.908 40.3533 199.128 40.28H200.118ZM238.005 87.8C234.339 87.8 232.505 86.48 232.505 83.84C232.505 83.0333 232.725 81.8967 233.165 80.43C233.679 79.0367 234.009 77.7533 234.155 76.58C234.229 76.0667 234.302 74.93 234.375 73.17C234.522 71.41 234.632 69.32 234.705 66.9C234.779 64.48 234.852 61.8767 234.925 59.09C234.999 56.3033 235.035 53.59 235.035 50.95V36.21C235.035 32.8367 234.779 30.27 234.265 28.51C233.679 26.6033 233.385 25.4667 233.385 25.1C233.385 23.4133 235.365 22.57 239.325 22.57C239.765 22.57 240.535 22.68 241.635 22.9L243.065 23.23C243.872 23.3767 244.495 23.4867 244.935 23.56C245.449 23.6333 245.889 23.67 246.255 23.67C246.622 23.67 247.172 23.56 247.905 23.34C248.712 23.0467 249.739 22.68 250.985 22.24C253.552 21.36 255.825 20.92 257.805 20.92H260.005C262.279 20.92 264.479 21.5433 266.605 22.79C268.805 23.9633 270.529 25.4667 271.775 27.3C274.489 30.9667 275.845 35.4767 275.845 40.83V43.14C275.845 46.5133 275.369 49.6667 274.415 52.6C273.462 55.46 272.032 57.9533 270.125 60.08C268.292 62.2067 265.982 63.93 263.195 65.25C260.482 66.4967 257.329 67.1933 253.735 67.34C250.802 67.4867 248.602 67.9633 247.135 68.77C245.669 69.65 244.935 71.2633 244.935 73.61C244.935 73.9767 245.009 74.49 245.155 75.15C245.302 75.81 245.449 76.58 245.595 77.46C246.035 79.22 246.255 80.54 246.255 81.42C246.255 83.3267 245.485 84.8667 243.945 86.04C242.405 87.2133 240.425 87.8 238.005 87.8ZM265.505 44.9V42.26C265.505 37.64 264.589 33.9733 262.755 31.26C260.995 28.4733 258.575 27.08 255.495 27.08H254.615C253.149 27.08 251.609 27.52 249.995 28.4C248.382 29.2067 247.025 30.4533 245.925 32.14C244.899 33.8267 244.385 37.7133 244.385 43.8V49.19C244.385 53.8833 244.972 57.1467 246.145 58.98C247.392 60.8133 249.665 61.73 252.965 61.73H253.845C257.219 61.73 260.005 60.2267 262.205 57.22C264.405 54.2133 265.505 50.1067 265.505 44.9ZM345.752 11.79C339.446 15.4567 336.292 23.34 336.292 35.44C336.292 38.96 336.622 42.26 337.282 45.34C337.942 48.42 339.042 51.0967 340.582 53.37C342.196 55.57 344.249 57.33 346.742 58.65C349.309 59.8967 352.499 60.52 356.312 60.52C359.979 60.52 364.562 58.9433 370.062 55.79C371.529 54.91 372.739 54.47 373.692 54.47C375.012 54.47 375.672 55.35 375.672 57.11C375.672 57.99 375.122 59.2 374.022 60.74C372.922 62.28 371.419 63.6 369.512 64.7C364.966 67.2667 359.832 68.55 354.112 68.55H352.682C348.062 68.55 344.029 67.7067 340.582 66.02C337.136 64.3333 334.276 62.06 332.002 59.2C329.729 56.34 328.006 53.04 326.832 49.3C325.732 45.4867 325.182 41.49 325.182 37.31V35.77C325.182 30.93 325.806 26.42 327.052 22.24C328.299 18.06 330.206 14.43 332.772 11.35C335.339 8.27 338.566 5.85 342.452 4.09C346.339 2.25667 350.922 1.34 356.202 1.34C364.782 1.34 370.282 3.35667 372.702 7.39C373.656 9.07667 374.132 10.58 374.132 11.9C374.132 14.6133 373.179 15.97 371.272 15.97C370.612 15.97 369.256 15.2733 367.202 13.88C365.076 12.4133 362.949 11.3133 360.822 10.58C358.696 9.84667 356.312 9.48 353.672 9.48C351.032 9.48 348.392 10.25 345.752 11.79ZM481.525 30.71C478.592 30.71 476.282 32.1767 474.595 35.11C472.982 38.0433 472.175 42.5533 472.175 48.64C472.175 49.96 472.212 51.06 472.285 51.94C472.358 52.82 472.432 53.6267 472.505 54.36C472.652 55.02 472.798 55.68 472.945 56.34C473.165 56.9267 473.385 57.66 473.605 58.54C473.752 59.3467 473.898 60.1167 474.045 60.85C474.192 61.5833 474.265 62.2433 474.265 62.83C474.265 64.0767 473.532 65.2133 472.065 66.24C470.598 67.1933 468.692 67.67 466.345 67.67L465.575 67.56H464.695C463.228 67.56 461.982 67.1567 460.955 66.35C459.928 65.47 459.415 64.5167 459.415 63.49V62.72C459.415 62.4267 459.745 61.3633 460.405 59.53C460.992 57.6233 461.322 55.8267 461.395 54.14C461.468 52.4533 461.505 50.1433 461.505 47.21V39.4L461.395 36.87V33.46C461.395 31.92 461.102 30.3433 460.515 28.73C459.928 27.4833 459.635 26.53 459.635 25.87C459.635 23.9633 461.285 23.01 464.585 23.01C467.958 23.01 470.342 23.9267 471.735 25.76C472.248 26.2733 472.725 26.53 473.165 26.53C473.605 26.53 474.412 26.1267 475.585 25.32C478.812 23.1933 481.452 22.13 483.505 22.13H484.275C486.182 22.13 487.612 22.57 488.565 23.45C489.592 24.2567 490.105 25.3567 490.105 26.75C490.105 29.61 488.565 31.04 485.485 31.04C484.165 30.82 482.845 30.71 481.525 30.71ZM510.496 87.8C506.829 87.8 504.996 86.48 504.996 83.84C504.996 83.0333 505.216 81.8967 505.656 80.43C506.169 79.0367 506.499 77.7533 506.646 76.58C506.719 76.0667 506.793 74.93 506.866 73.17C507.013 71.41 507.123 69.32 507.196 66.9C507.269 64.48 507.343 61.8767 507.416 59.09C507.489 56.3033 507.526 53.59 507.526 50.95V36.21C507.526 32.8367 507.269 30.27 506.756 28.51C506.169 26.6033 505.876 25.4667 505.876 25.1C505.876 23.4133 507.856 22.57 511.816 22.57C512.256 22.57 513.026 22.68 514.126 22.9L515.556 23.23C516.363 23.3767 516.986 23.4867 517.426 23.56C517.939 23.6333 518.379 23.67 518.746 23.67C519.113 23.67 519.663 23.56 520.396 23.34C521.203 23.0467 522.229 22.68 523.476 22.24C526.043 21.36 528.316 20.92 530.296 20.92H532.496C534.769 20.92 536.969 21.5433 539.096 22.79C541.296 23.9633 543.019 25.4667 544.266 27.3C546.979 30.9667 548.336 35.4767 548.336 40.83V43.14C548.336 46.5133 547.859 49.6667 546.906 52.6C545.953 55.46 544.523 57.9533 542.616 60.08C540.783 62.2067 538.473 63.93 535.686 65.25C532.973 66.4967 529.819 67.1933 526.226 67.34C523.293 67.4867 521.093 67.9633 519.626 68.77C518.159 69.65 517.426 71.2633 517.426 73.61C517.426 73.9767 517.499 74.49 517.646 75.15C517.793 75.81 517.939 76.58 518.086 77.46C518.526 79.22 518.746 80.54 518.746 81.42C518.746 83.3267 517.976 84.8667 516.436 86.04C514.896 87.2133 512.916 87.8 510.496 87.8ZM537.996 44.9V42.26C537.996 37.64 537.079 33.9733 535.246 31.26C533.486 28.4733 531.066 27.08 527.986 27.08H527.106C525.639 27.08 524.099 27.52 522.486 28.4C520.873 29.2067 519.516 30.4533 518.416 32.14C517.389 33.8267 516.876 37.7133 516.876 43.8V49.19C516.876 53.8833 517.463 57.1467 518.636 58.98C519.883 60.8133 522.156 61.73 525.456 61.73H526.336C529.709 61.73 532.496 60.2267 534.696 57.22C536.896 54.2133 537.996 50.1067 537.996 44.9Z" fill="black"/>
</svg>
